<?xml version="1.0" encoding="UTF-8"?>
<svg id="Layer_1" data-name="Layer 1" xmlns="http://www.w3.org/2000/svg" viewBox="0 0 512 512">
  <g>
    <rect x="10.4" y="17.17" width="261.25" height="360.73" style="fill: none;"/>
    <path d="M221.81,275.51c-1.49,19.04-9.59,99.04-93.24,99.04-90.58,0-98.15-92.52-98.15-175.14,0-99.81,26.96-170.86,102.15-170.86,82.48,0,87.48,75.96,88.42,97.69h-41.4c-.72-11.39-2.57-61.38-47.75-61.38-50.09,0-58.41,67.37-58.41,134.96s7.56,138.87,56.12,138.87c43.11,0,49.14-46.98,50.63-63.18h41.62Z" style="fill: #33baea;"/>
  </g>
  <g>
    <rect x="244.68" y="174.39" width="428.27" height="399.14" style="fill: none;"/>
    <path d="M290.29,480.5l-40.47-293.25h41.87c7.72,66.66,19.12,174.9,21.45,226.42h.75c5.63-55.79,21.1-159.97,30.06-226.42h38.88c9.26,67.9,24.61,164.97,29.62,224.61h1.01c3.38-54.28,14.95-155.97,22.67-224.61h39.89l-43.81,293.25h-40.95c-8.82-66.94-23.07-161.05-28.87-216.44h-.75c-6.5,57.92-21.33,151.26-30.72,216.44h-40.64Z" style="fill: #33baea;"/>
  </g>
</svg>